<?xml version="1.0" encoding="UTF-8" standalone="no"?>
<!-- Created with Inkscape (http://www.inkscape.org/) -->

<svg
   width="128mm"
   height="128mm"
   viewBox="0 0 128 128"
   version="1.1"
   id="svg1"
   xml:space="preserve"
   inkscape:version="1.3.2 (091e20e, 2023-11-25, custom)"
   sodipodi:docname="icon.svg"
   xmlns:inkscape="http://www.inkscape.org/namespaces/inkscape"
   xmlns:sodipodi="http://sodipodi.sourceforge.net/DTD/sodipodi-0.dtd"
   xmlns="http://www.w3.org/2000/svg"
   xmlns:svg="http://www.w3.org/2000/svg"><sodipodi:namedview
     id="namedview1"
     pagecolor="#ffffff"
     bordercolor="#000000"
     borderopacity="0.25"
     inkscape:showpageshadow="2"
     inkscape:pageopacity="0.0"
     inkscape:pagecheckerboard="0"
     inkscape:deskcolor="#d1d1d1"
     inkscape:document-units="mm"
     inkscape:zoom="1.4075477"
     inkscape:cx="176.54819"
     inkscape:cy="225.92485"
     inkscape:window-width="1920"
     inkscape:window-height="991"
     inkscape:window-x="-9"
     inkscape:window-y="-9"
     inkscape:window-maximized="1"
     inkscape:current-layer="layer2" /><defs
     id="defs1" /><g
     inkscape:label="Layer 1"
     inkscape:groupmode="layer"
     id="layer1"
     style="display:none;fill:#000000"
     sodipodi:insensitive="true"><rect
       style="fill:#000000;stroke-width:0.264583"
       id="rect1"
       width="128"
       height="128"
       x="0"
       y="0" /></g><g
     inkscape:groupmode="layer"
     id="layer2"
     inkscape:label="Layer 2"><circle
       style="fill:none;stroke:#ffffff;stroke-width:4.37341;stroke-dasharray:none"
       id="path1"
       cx="-6.9831185e-05"
       cy="90.509834"
       r="43.077534"
       transform="rotate(-45)" /><circle
       style="fill:none;stroke:#ffffff;stroke-width:4.37341;stroke-dasharray:none"
       id="path1-79"
       cx="-9.9998293"
       cy="90.509834"
       r="43.077534"
       transform="rotate(-45)" /><circle
       style="fill:none;stroke:#ffffff;stroke-width:4.37341;stroke-dasharray:none"
       id="path1-7"
       cx="10.000167"
       cy="90.509834"
       r="43.077534"
       transform="rotate(-45)" /><path
       d="m 79.943651,47.705311 c 0.531453,0.426563 0.839139,1.069903 0.839139,1.748208 v 21.258203 c 0,3.090831 -3.006916,5.594267 -6.713116,5.594267 -3.7062,0 -6.713117,-2.503436 -6.713117,-5.594267 0,-3.09083 3.006917,-5.594266 6.713117,-5.594266 0.783196,0 1.538422,0.111884 2.237706,0.32167 v -8.160631 l -15.663938,3.48243 v 14.426203 c 0,3.090831 -3.006916,5.594267 -6.713116,5.594267 -3.706201,0 -6.713116,-2.503436 -6.713116,-5.594267 0,-3.09083 3.006915,-5.594257 6.713116,-5.594257 0.783197,0 1.538423,0.111884 2.237704,0.32167 V 53.928929 c 0,-1.048924 0.727255,-1.957992 1.755201,-2.181762 l 20.139348,-4.475411 c 0.664319,-0.146849 1.356608,0.01398 1.888066,0.440548 z"
       id="path1-2"
       style="fill:#ffffff;stroke-width:0.0699282" /></g></svg>
